<?xml version="1.0" standalone="no"?><!DOCTYPE svg PUBLIC "-//W3C//DTD SVG 1.1//EN" "http://www.w3.org/Graphics/SVG/1.1/DTD/svg11.dtd"><svg t="1629369859149" class="icon" viewBox="0 0 1024 1024" version="1.1" xmlns="http://www.w3.org/2000/svg" p-id="2135" xmlns:xlink="http://www.w3.org/1999/xlink" width="200" height="200"><defs><style type="text/css"></style></defs><path d="M785.513828 821.286754c-70.055313-56.640466-131.167394-144.582242-131.167394-144.582242l-10.43377 8.943232c19.377001 26.829694 78.998544 102.847162 126.695779 141.601164 49.187773 38.754003 96.885007 73.03639 111.790393 84.960699 14.905386 13.414847 8.943231 20.86754 4.471615 29.810771-7.452693 17.886463 14.905386 26.829694 22.358079 5.962155 1.490539-4.471616 2.981077-10.43377 2.981077-17.886463-2.981077-28.320233-56.640466-52.16885-126.695779-108.809316z" fill="#d4237a" p-id="2136"></path><path d="M666.53875427 688.85915535c66.14016455-15.26311481 105.14590379 10.17540949 142.45574088 16.95901695-3.39180317-10.17540949-18.65491797-25.43852544-10.17541063-28.83032861 33.91803278-11.87131165 71.22786987-5.08770531 106.84180479-8.47950846-6.78360633-6.78360633-27.13442645-15.26311481-20.35082012-22.04672114 13.56721379-13.56721379 37.30983709-10.17540949 55.96475506-15.26311482-3.39180317-3.39180317-11.87131165-10.17540949-8.47950847-11.87131165 25.43852544-11.87131165 54.26885291-13.56721379 81.40328049-20.35082012-25.43852544-5.08770531-50.87704974-5.08770531-74.61967303-15.26311481-3.39180317-1.69590215 3.39180317-8.47950848 5.08770417-11.87131164-39.0057381-5.08770531-76.31557518 1.69590215-115.32131328-16.95901696 1.69590215-32.22213177 64.44426354-66.14016455 94.9704943-98.36229632-5.08770531 0-16.95901696 3.39180317-15.26311594-1.69590216 16.95901696-28.83032861 40.70164025-54.26885291 61.05246036-81.40327936-35.61393493 3.39180317-69.53196885 5.08770531-105.14590378 8.4795085 13.56721379-39.0057381 28.83032861-76.31557518 42.3975424-115.32131328-11.87131165 0-35.61393493 13.56721379-37.30983708 1.695901-6.78360633-27.13442645 11.87131165-54.26885291 18.65491796-81.40327936-6.78360633 0-18.65491797 8.47950848-20.35081897 1.69590101-3.39180317-15.26311481 5.08770531-32.22213177 8.47950733-47.48524658-5.08770531 0-11.87131165 1.69590215-13.56721266-3.39180316-3.39180317-25.43852544 1.69590215-52.57295189 1.69590102-79.70737835-18.65491797 25.43852544-33.91803278 54.26885291-55.96475392 76.31557518-3.39180317 3.39180317-8.47950848-5.08770531-11.87131279-8.47950846-10.17540949 16.95901696-13.56721379 40.70164025-30.52622961 52.57295188-6.78360633 5.08770531-11.87131165-10.17540949-16.95901696-16.95901696-15.26311481 35.61393493-23.74262329 72.92377202-45.78934442 105.1459038-5.08770531 6.78360633-13.56721379-13.56721379-15.26311482-16.95901698-3.39180317-3.39180317-5.08770531 111.92951011-45.78934556 150.93524824-57.66065607-74.61967303-15.26311481-122.10491961-22.04672114-184.85328216-3.39180317 5.08770531-10.17540949 18.65491797-11.87131164 11.87131165-8.47950848-23.74262329-5.08770531-49.18114873-8.47950849-72.92377088-3.39180317 5.08770531-10.17540949 20.35082013-11.87131163 15.26311481-6.78360633-16.95901696-3.39180317-37.30983709-5.08770533-55.96475506-6.78360633 16.95901696-11.87131165 37.30983709-22.04672113 52.57295189-1.69590215 3.39180317-6.78360633-3.39180317-10.17541064-6.78360746-1.69590215 18.65491797-18.65491797 55.96475506-39.0057381 55.96475505-15.26311481 0-37.30983709-55.96475506-55.96475505-83.09918151-1.69590215 1.69590215-5.08770531 8.47950848-6.78360633 6.78360748-10.17540949-11.87131165-15.26311481-28.83032861-23.74262329-42.39754241-8.47950848 13.56721379-18.65491797 40.70164025-27.13442645 39.0057381-16.95901696-1.69590215-44.09344341-27.13442645-64.44426354-40.70163911 0 3.39180317 1.69590215 13.56721379-1.69590214 13.56721267-13.56721379-5.08770531-23.74262329-16.95901696-35.61393494-25.43852431 0 3.39180317 3.39180317 13.56721379 0 11.87131164-22.04672114-10.17540949-40.70164025-27.13442645-59.35655823-40.70164025 5.08770531 23.74262329 13.56721379 47.48524658 15.26311481 71.22786988 0 3.39180317-6.78360633-3.39180317-10.17540949-5.08770533 3.39180317 13.56721379 10.17540949 28.83032861 10.17540949 42.3975424 0 5.08770531-8.47950848-1.69590215-11.87131163-3.3918043 5.08770531 25.43852544 16.95901696 59.35655822 13.56721379 76.31557518-1.69590215 8.47950848-30.52622962 6.78360633-47.48524658 10.17541063 10.17540949 13.56721379 23.74262329 23.74262329 30.52622961 39.0057381 1.69590215 3.39180317-5.08770531 3.39180317-8.47950848 5.08770532 18.65491797 27.13442645 62.74836139 67.8360667 57.66065721 83.0991815-6.78360633 18.65491797-49.18114873 20.35082013-66.14016569 15.26311481 0 3.39180317 5.08770531 10.17540949 1.69590216 11.87131167-18.65491797 5.08770531-37.30983709 1.69590215-55.96475506 1.69590099 16.95901696 8.47950848 37.30983709 13.56721379 49.18114873 25.43852544 5.08770531 5.08770531-11.87131165 3.39180317-18.65491912 5.08770532 22.04672114 11.87131165 45.78934443 18.65491797 64.44426356 35.61393493 5.08770531 3.39180317-10.17540949 5.08770531-15.26311483 6.78360633 54.26885291 30.52622962 113.62541113 8.47950848 162.80655987 89.88278784-50.87704974 22.04672114-157.71885454-16.95901696-157.71885455-13.56721265 1.69590215 3.39180317 16.95901696 18.65491797 10.17540949 20.35082012-37.30983709 8.47950848-76.31557518 1.69590215-113.62541113 3.39180316 3.39180317 6.78360633 15.26311481 16.95901696 8.47950848 22.04672114-16.95901696 10.17540949-40.70164025 5.08770531-59.35655822 8.47950848 1.69590215 5.08770531 6.78360633 11.87131165 3.39180317 13.56721379-28.83032861 11.87131165-61.05246037 15.26311481-93.27459215 23.7426233 25.43852544 10.17540949 50.87704974 15.26311481 74.61967303 28.8303286 3.39180317 1.69590215-1.69590215 8.47950848-3.39180316 13.56721267 15.26311481 3.39180317 33.91803278 0 47.48524658 10.17541062 5.08770531 3.39180317-6.78360633 11.87131165-8.47950734 18.65491797 27.13442645 5.08770531 59.35655822-3.39180317 83.0991815 13.56721379 10.17540949 6.78360633-10.17540949 23.74262329-15.26311594 35.61393494 40.70164025 1.69590215 81.4032805 1.69590215 123.80082176 3.39180316-15.26311481 32.22213177-30.52622962 62.74836139-47.48524656 94.97049316 32.22213177-8.47950848 64.44426354-22.04672114 98.36229744-27.13442646 5.08770531 0-3.39180317 10.17540949-3.39180429 13.56721266 42.39754126-16.95901696 96.66639531-62.74836139 127.19262493-50.87704973 3.39180317 44.09344341-18.65491797 74.61967303-28.83032748 113.62541113 5.08770531 0 13.56721379-5.08770531 13.56721265-1.69590102 0 25.43852544-10.17540949 49.18114873-15.26311481 74.61967304 16.95901696-22.04672114 28.83032861-47.48524658 49.18114873-67.83606672 3.39180317-3.39180317 5.08770531 8.47950848 8.47950849 11.87131166 11.87131165-15.26311481 16.95901696-39.0057381 33.91803278-45.78934444 8.47950848-3.39180317 8.47950848 18.65491797 11.87131164 27.13442646 15.26311481-32.22213177 23.74262329-69.53196885 47.48524658-94.97049316 6.78360633-6.78360633 15.26311481 13.56721379 22.04672228 20.35082012 8.47950848-37.30983709-1.69590215-83.09918151 39.0057381-139.06393658-1.69590215-1.69590215-3.39180317-5.08770531-5.08770532-6.78360744l-145.84754289 167.89426516 133.97623125-174.67787149-390.05738325-20.35082013 383.27377691 6.78360634-152.63115036-217.07541278-179.76557684-16.95901696h169.59016735l-142.45574087-235.73033074 154.32705251 225.55492125 64.4442624-139.06393657-50.87704974 156.02295353 154.32705137 215.37951061 161.11065885-418.88771072L661.4510501 666.81243421l242.51393821-64.44426355L661.4510501 680.37964686s1.69590215 3.39180317 5.08770417 8.47950849z" fill="#d4237a" p-id="2137"></path></svg>